<svg width="18" height="17" viewBox="0 0 18 17" fill="none" xmlns="http://www.w3.org/2000/svg">
<path d="M8.26699 3.07515L9.00766 4.11481L9.7381 3.06793C10.8093 1.53263 11.9684 0.9 13.2188 0.9C15.2379 0.9 17.1 2.82741 17.1 5.47819C17.1 7.00825 16.7747 8.08868 15.9386 9.28361C15.0588 10.541 13.6177 11.922 11.3061 14.0104C11.3057 14.0108 11.3052 14.0112 11.3048 14.0116L9 16.077L6.6952 14.0116C6.69479 14.0112 6.69437 14.0109 6.69396 14.0105C4.38233 11.922 2.94118 10.541 2.06139 9.28361C1.22529 8.08868 0.9 7.00825 0.9 5.47819C0.9 2.82741 2.76206 0.9 4.78125 0.9C6.00417 0.9 7.16637 1.53022 8.26699 3.07515Z" stroke="white" stroke-width="1.8"/>
</svg>
