<svg width="158" height="36" viewBox="0 0 158 36" fill="none" xmlns="http://www.w3.org/2000/svg">
<path d="M154.355 4.13074C153.91 4.1195 153.467 4.19565 153.052 4.35474C152.638 4.51383 152.26 4.75265 151.94 5.05721C151.621 5.36176 151.366 5.72592 151.192 6.12833C151.017 6.53075 150.926 6.96333 150.924 7.40071C150.922 7.8381 151.009 8.27149 151.18 8.67548C151.35 9.07947 151.601 9.44593 151.918 9.75339C152.235 10.0609 152.61 10.3031 153.024 10.466C153.437 10.6289 153.879 10.7091 154.324 10.7019C155.199 10.6878 156.033 10.3375 156.648 9.72608C157.263 9.11468 157.61 8.29086 157.614 7.43126C157.618 6.57166 157.279 5.74471 156.67 5.12772C156.061 4.51073 155.23 4.15282 154.355 4.13074ZM154.355 10.2056C153.779 10.2065 153.216 10.0391 152.737 9.72478C152.258 9.41044 151.886 8.96331 151.666 8.44023C151.5 8.04986 151.425 7.62818 151.446 7.2057C151.466 6.78323 151.582 6.37055 151.785 5.99753C151.988 5.62451 152.273 5.30049 152.619 5.04893C152.965 4.79738 153.364 4.62458 153.786 4.54305C154.185 4.46281 154.598 4.46587 154.996 4.55202C155.394 4.63818 155.769 4.80551 156.097 5.04319C156.425 5.28087 156.699 5.5836 156.9 5.93177C157.102 6.27995 157.226 6.66581 157.266 7.06437C157.307 7.46294 157.261 7.86532 157.133 8.24547C157.004 8.62562 156.796 8.97507 156.522 9.27118C156.247 9.5673 155.913 9.80348 155.539 9.96444C155.166 10.1254 154.763 10.2075 154.355 10.2056Z" fill="white"/>
<path d="M155.446 7.91805C155.427 7.81801 155.38 7.72507 155.311 7.64958C155.242 7.57408 155.152 7.519 155.053 7.49046C155.203 7.43324 155.331 7.33294 155.422 7.20269C155.513 7.07244 155.561 6.91832 155.561 6.7605C155.561 6.5256 155.466 6.30031 155.297 6.1342C155.128 5.9681 154.899 5.87478 154.66 5.87478H153.555C153.379 5.87478 153.307 5.87478 153.307 6.11759V8.83279C153.307 8.91984 153.307 8.93358 153.408 8.93358H153.671C153.685 8.93358 153.698 8.93096 153.71 8.92588C153.722 8.9208 153.734 8.91335 153.743 8.90397C153.753 8.89459 153.76 8.88346 153.765 8.87124C153.77 8.85903 153.772 8.84595 153.772 8.83279V7.63248H154.355C154.487 7.61155 154.623 7.64138 154.734 7.71583C154.845 7.79028 154.922 7.90366 154.95 8.03259L155.183 8.87708L155.446 7.91805ZM155.27 8.87708H155.605V8.79003L155.27 8.87708ZM154.5 7.23238H153.802V6.26114H154.559C155.023 6.26114 155.11 6.56045 155.11 6.74676C155.091 6.8892 155.017 7.01901 154.904 7.10938C154.79 7.19976 154.645 7.24379 154.5 7.23238ZM105.386 4.43167C101.884 4.42341 98.5127 5.74007 95.9719 8.10856C93.4311 10.477 91.9156 13.7156 91.7399 17.1525V35.7343H96.1043V27.6712C97.7339 29.1472 99.7052 30.2106 101.847 30.7691C103.99 31.3276 106.238 31.3644 108.398 30.8764C110.558 30.3884 112.565 29.3902 114.243 27.9684C115.922 26.5465 117.223 24.744 118.032 22.7168C118.842 20.6897 119.136 18.4991 118.89 16.3349C118.643 14.1708 117.863 12.0983 116.618 10.2972C115.372 8.496 113.698 7.02045 111.741 5.99837C109.784 4.97629 107.603 4.43852 105.386 4.43167ZM114.668 17.8397C114.676 20.108 113.822 22.2975 112.275 23.9807C110.727 25.6639 108.596 26.7197 106.299 26.9421C104.001 27.1644 101.702 26.5372 99.85 25.183C97.9979 23.8288 96.7261 21.8449 96.283 19.6187C95.8931 17.6995 96.1421 15.7078 96.9933 13.9383C97.8445 12.1689 99.2527 10.7155 101.01 9.79315C102.766 8.8708 104.779 8.52843 106.749 8.81668C108.719 9.10493 110.543 10.0085 111.95 11.3937C113.692 13.1025 114.675 15.4196 114.682 17.8381H114.668V17.8397ZM51.8062 11.6488L40.6342 18.3375L43.093 22.027L57.6409 13.1209V12.9804C56.5509 10.2027 54.548 7.86216 51.9501 6.33006C49.3521 4.79796 46.3079 4.16204 43.3003 4.52318C40.2927 4.88432 37.494 6.22183 35.348 8.32355C33.2021 10.4253 31.8319 13.1708 31.4547 16.1247C30.9936 19.652 31.9774 23.2147 34.1897 26.0293C36.402 28.8439 39.6616 30.6798 43.2516 31.1331C43.8068 31.202 44.3659 31.2352 44.9255 31.2324C47.3989 31.2051 49.8236 30.553 51.9664 29.3388C54.1091 28.1246 55.8979 26.3891 57.1607 24.2993L57.2477 24.1298L53.6838 21.6406L53.5672 21.8422C52.6424 23.54 51.2245 24.9291 49.4938 25.8327C47.7632 26.7364 45.798 27.1137 43.8484 26.9168C42.0251 26.6951 40.3097 25.9466 38.9196 24.7664C37.5295 23.5861 36.5271 22.027 36.0395 20.2866C35.5518 18.5462 35.6008 16.7028 36.1803 14.9897C36.7597 13.2767 37.8435 11.7712 39.2944 10.6638C40.2458 9.90827 41.3455 9.35345 42.5247 9.03396C43.704 8.71447 44.9377 8.63715 46.1487 8.80683C48.3176 9.06701 50.3223 10.0746 51.8062 11.6503V11.6488ZM74.8218 4.43167C71.32 4.42059 67.9488 5.73675 65.4099 8.10622C62.8709 10.4757 61.3597 13.7159 61.1909 17.1525V35.7343H65.5552V27.6712C67.1853 29.1477 69.1573 30.2112 71.3003 30.7696C73.4432 31.328 75.6925 31.3644 77.853 30.8756C80.0135 30.3868 82.02 29.3876 83.6987 27.9647C85.3773 26.5417 86.6773 24.7379 87.4861 22.7097C88.2948 20.6815 88.5878 18.4901 88.3397 16.3255C88.0915 14.1609 87.3098 12.0884 86.0622 10.2877C84.8145 8.48707 83.1387 7.01259 81.18 5.99213C79.2213 4.97167 77.0388 4.43604 74.8218 4.43167ZM84.1473 17.8397C84.147 19.6453 83.6011 21.4102 82.5787 22.9107C81.5563 24.4111 80.1036 25.5795 78.4046 26.2678C76.7056 26.9562 74.8369 27.1334 73.0352 26.777C71.2336 26.4206 69.5803 25.5468 68.2847 24.2661C66.9892 22.9855 66.1098 21.3557 65.758 19.5835C65.4062 17.8112 65.5978 15.9763 66.3086 14.3112C67.0194 12.646 68.2174 11.2258 69.7507 10.2303C71.284 9.23493 73.0835 8.7092 74.9212 8.71978C77.3713 8.7387 79.7148 9.70724 81.4419 11.4148C83.169 13.1223 84.1402 15.4308 84.1442 17.8381L84.1473 17.8397ZM28.0074 0H23.643V8.0616C21.3666 5.99733 18.4419 4.75746 15.3516 4.54667C12.2613 4.33588 9.19023 5.16677 6.64539 6.90218C4.10055 8.63759 2.2341 11.1738 1.35415 14.092C0.474203 17.0102 0.63338 20.136 1.8054 22.9534C2.97743 25.7707 5.09222 28.1112 7.80065 29.5883C10.5091 31.0655 13.6492 31.591 16.7027 31.0782C19.7561 30.5654 22.5403 29.0449 24.5956 26.7677C26.6508 24.4905 27.8543 21.5927 28.0074 18.5528V0ZM23.643 17.8381C23.6546 19.6425 23.1213 21.4097 22.1104 22.9161C21.0995 24.4225 19.6565 25.6005 17.9641 26.3009C16.2716 27.0013 14.4057 27.1926 12.6025 26.8508C10.7993 26.5089 9.13983 25.6492 7.83409 24.3804C6.52835 23.1116 5.63503 21.4907 5.26717 19.7229C4.8993 17.9551 5.07344 16.1198 5.76753 14.4492C6.46162 12.7787 7.64447 11.348 9.1664 10.3382C10.6883 9.32833 12.481 8.78478 14.3174 8.77629C16.7765 8.78033 19.1334 9.74296 20.8708 11.4528C22.6081 13.1627 23.5839 15.4801 23.5839 17.8962L23.643 17.8381ZM149.582 17.1525C149.435 14.1002 148.231 11.1889 146.17 8.90038C144.109 6.61182 141.315 5.08322 138.25 4.56758C135.961 4.18134 133.609 4.37494 131.417 5.13006C129.226 5.88519 127.266 7.17691 125.724 8.88317C124.181 10.5894 123.107 12.6539 122.603 14.8815C122.099 17.109 122.181 19.4261 122.842 21.6139C123.502 23.8016 124.72 25.7877 126.379 27.3844C128.039 28.9812 130.085 30.1359 132.325 30.7395C134.565 31.343 136.924 31.3755 139.18 30.8338C141.436 30.2921 143.515 29.1942 145.219 27.6437V31.1606H149.582V17.1525ZM145.219 17.8091C145.218 19.6113 144.674 21.3729 143.654 22.8711C142.635 24.3694 141.187 25.5372 139.492 26.2268C137.797 26.9165 135.933 27.0972 134.134 26.7459C132.334 26.3947 130.682 25.5274 129.384 24.2535C128.087 22.9815 127.201 21.3606 126.839 19.595C126.478 17.8295 126.656 15.9982 127.351 14.3319C128.286 12.0938 130.087 10.3121 132.358 9.37879C134.63 8.44546 137.186 8.43692 139.464 9.35506C141.17 10.0423 142.629 11.2136 143.654 12.7195C144.679 14.2254 145.224 15.9974 145.219 17.8091Z" fill="white"/>
</svg>
