<svg width="18" height="18" viewBox="0 0 18 18" fill="none" xmlns="http://www.w3.org/2000/svg">
<path fill-rule="evenodd" clip-rule="evenodd" d="M7.45715 0C3.33868 0 0 3.33868 0 7.45714C0 11.5756 3.33868 14.9143 7.45715 14.9143C9.18274 14.9143 10.7714 14.3282 12.035 13.3442L16.4197 17.7289C16.7812 18.0904 17.3673 18.0904 17.7289 17.7289C18.0904 17.3673 18.0904 16.7812 17.7289 16.4197L13.3442 12.035C14.3282 10.7714 14.9143 9.18274 14.9143 7.45714C14.9143 3.33868 11.5756 0 7.45715 0ZM7.45715 1.85143C4.3612 1.85143 1.85143 4.36119 1.85143 7.45714C1.85143 10.5531 4.3612 13.0629 7.45715 13.0629C10.5531 13.0629 13.0629 10.5531 13.0629 7.45714C13.0629 4.36119 10.5531 1.85143 7.45715 1.85143Z" fill="white"/>
</svg>
