<svg width="22" height="17" viewBox="0 0 22 17" fill="none" xmlns="http://www.w3.org/2000/svg">
<path d="M15 7.99998L9 11V4.99998L15 7.99998Z" fill="white"/>
<path d="M1 8.80698V7.39198C1 4.49698 1 3.04898 1.905 2.11798C2.811 1.18598 4.237 1.14598 7.088 1.06498C8.438 1.02698 9.818 0.999977 11 0.999977C12.181 0.999977 13.561 1.02698 14.912 1.06498C17.763 1.14598 19.189 1.18598 20.094 2.11798C21 3.04898 21 4.49798 21 7.39198V8.80698C21 11.703 21 13.15 20.095 14.082C19.189 15.013 17.764 15.054 14.912 15.134C13.562 15.173 12.182 15.2 11 15.2C9.69576 15.1961 8.39163 15.1741 7.088 15.134C4.237 15.054 2.811 15.014 1.905 14.082C1 13.15 1 11.702 1 8.80798V8.80698Z" stroke="white" stroke-width="1.8"/>
</svg>
